<svg width="80" height="80" viewBox="0 0 80 80" fill="none" xmlns="http://www.w3.org/2000/svg">
<mask id="mask0_92_334" style="mask-type:alpha" maskUnits="userSpaceOnUse" x="0" y="0" width="80" height="80">
<rect width="80" height="80" fill="#D9D9D9"/>
</mask>
<g mask="url(#mask0_92_334)">
<path d="M24.3592 68.3333C22.6969 68.3333 21.2769 67.7447 20.0992 66.5675C18.9219 65.3897 18.3333 63.9697 18.3333 62.3075V20H15V15H30V12.0516H50V15H65V20H61.6667V62.3075C61.6667 63.9914 61.0833 65.4166 59.9167 66.5833C58.75 67.75 57.3247 68.3333 55.6408 68.3333H24.3592ZM56.6667 20H23.3333V62.3075C23.3333 62.6069 23.4294 62.8527 23.6217 63.045C23.8139 63.2372 24.0597 63.3333 24.3592 63.3333H55.6408C55.8975 63.3333 56.1325 63.2264 56.3458 63.0125C56.5597 62.7991 56.6667 62.5641 56.6667 62.3075V20ZM31.3467 56.6666H36.3458V26.6666H31.3467V56.6666ZM43.6542 56.6666H48.6533V26.6666H43.6542V56.6666Z" fill="#0E2C50"/>
</g>
</svg>
