<svg width="80" height="80" viewBox="0 0 80 80" fill="none" xmlns="http://www.w3.org/2000/svg">
<path d="M55 67.95L48.525 61.475L45 65L55 75L75 55L71.475 51.475L55 67.95Z" fill="#0E2C50"/>
<path d="M37.5 70H20V10.0001H40V25C40.004 26.3249 40.532 27.5944 41.4688 28.5312C42.4057 29.468 43.6751 29.9961 45 30H60V45H65V25C65.0088 24.6715 64.9463 24.3449 64.8169 24.0428C64.6874 23.7407 64.494 23.4703 64.25 23.25L46.75 5.75005C46.5309 5.50471 46.2606 5.31041 45.9582 5.18082C45.6559 5.05124 45.3288 4.98954 45 5.00005H20C18.6751 5.00401 17.4057 5.53206 16.4688 6.46889C15.532 7.40571 15.004 8.67518 15 10.0001V70C15.004 71.3249 15.532 72.5944 16.4688 73.5312C17.4057 74.468 18.6751 74.9961 20 75H37.5V70ZM45 11.0001L59 25H45V11.0001Z" fill="#0E2C50"/>
</svg>
