<svg width="80" height="80" viewBox="0 0 80 80" fill="none" xmlns="http://www.w3.org/2000/svg">
<path d="M40.0017 30C38.2183 30 36.5417 29.5333 35.0917 28.7133C36.0071 27.6545 36.7501 26.4582 37.2933 25.1683C38.1824 25.634 39.1766 25.8623 40.1797 25.8314C41.1829 25.8004 42.1611 25.5112 43.0197 24.9916C43.8784 24.472 44.5885 23.7397 45.0813 22.8654C45.5742 21.9911 45.8331 21.0045 45.8331 20.0008C45.8331 18.9972 45.5742 18.0106 45.0813 17.1363C44.5885 16.262 43.8784 15.5297 43.0197 15.0101C42.1611 14.4905 41.1829 14.2012 40.1797 14.1703C39.1766 14.1393 38.1824 14.3677 37.2933 14.8333C36.7502 13.5428 36.0072 12.346 35.0917 11.2867C36.4241 10.5363 37.9108 10.1015 39.4376 10.0158C40.9643 9.92996 42.4904 10.1954 43.8985 10.7918C45.3065 11.3881 46.5591 12.2995 47.5598 13.4557C48.5605 14.6119 49.2828 15.9822 49.671 17.4613C50.0592 18.9404 50.103 20.4887 49.7991 21.9874C49.4952 23.486 48.8517 24.895 47.918 26.106C46.9843 27.317 45.7853 28.2977 44.4132 28.9728C43.0411 29.6479 41.5325 29.9993 40.0033 30M40.0033 65.8333L39.7933 65.8317C38.7752 67.2221 37.5661 68.4621 36.2017 69.515C37.4167 69.8317 38.69 70 40.0033 70C43.9816 70 47.7969 68.4196 50.6099 65.6066C53.423 62.7935 55.0033 58.9782 55.0033 55V39.5833C55.0033 37.9257 54.3449 36.336 53.1728 35.1639C52.0007 33.9918 50.4109 33.3333 48.7533 33.3333H41.015C42.0475 34.5269 42.7664 35.9589 43.1067 37.5H48.7533C49.9033 37.5 50.8367 38.4333 50.8367 39.5833V55C50.8367 57.8732 49.6953 60.6287 47.6637 62.6603C45.632 64.692 42.8765 65.8333 40.0033 65.8333ZM55.0033 30C53.22 30 51.5467 29.5333 50.0983 28.7167C51.0145 27.6575 51.758 26.4606 52.3017 25.17C53.1908 25.6343 54.1846 25.8614 55.1871 25.8296C56.1896 25.7977 57.1669 25.5079 58.0248 24.9881C58.8826 24.4683 59.5919 23.7361 60.0842 22.8622C60.5764 21.9883 60.8351 21.0022 60.8351 19.9992C60.8351 18.9962 60.5764 18.0101 60.0842 17.1362C59.5919 16.2623 58.8826 15.5301 58.0248 15.0103C57.1669 14.4905 56.1896 14.2006 55.1871 14.1688C54.1846 14.1369 53.1908 14.3641 52.3017 14.8283C51.7577 13.5389 51.0142 12.3432 50.0983 11.285C51.431 10.5351 52.9178 10.1009 54.4445 10.0156C55.9712 9.93028 57.4971 10.1962 58.905 10.793C60.3128 11.3897 61.5651 12.3014 62.5654 13.4579C63.5658 14.6143 64.2876 15.9848 64.6754 17.4639C65.0632 18.943 65.1066 20.4914 64.8023 21.9899C64.498 23.4884 63.8542 24.8972 62.9202 26.1079C61.9863 27.3186 60.7871 28.299 59.4149 28.9738C58.0427 29.6485 56.5324 29.9996 55.0033 30ZM55.005 65.8333L54.8017 65.8317C53.783 67.2223 52.5733 68.4622 51.2083 69.515C53.4272 70.0952 55.7495 70.159 57.9968 69.7013C60.2441 69.2436 62.3566 68.2766 64.1717 66.8748C65.9869 65.473 67.4564 63.6737 68.4674 61.6151C69.4784 59.5564 70.0038 57.2934 70.0033 55V39.585C70.0033 37.9274 69.3449 36.3377 68.1728 35.1656C67.0007 33.9935 65.4109 33.335 63.7533 33.335H56.0217C57.0542 34.5286 57.773 35.9606 58.1133 37.5017H63.7533C64.9033 37.5017 65.8367 38.435 65.8367 39.585V55C65.8367 57.8732 64.6953 60.6287 62.6637 62.6603C60.632 64.692 57.8782 65.8333 55.005 65.8333ZM10 39.5833C10 37.9257 10.6585 36.336 11.8306 35.1639C13.0027 33.9918 14.5924 33.3333 16.25 33.3333H33.75C35.4076 33.3333 36.9973 33.9918 38.1694 35.1639C39.3415 36.336 40 37.9257 40 39.5833V55C40 58.9782 38.4197 62.7935 35.6066 65.6066C32.7936 68.4196 28.9783 70 25 70C21.0218 70 17.2064 68.4196 14.3934 65.6066C11.5804 62.7935 10 58.9782 10 55V39.5833ZM16.25 37.5C15.1 37.5 14.1667 38.4333 14.1667 39.5833V55C14.1667 57.8732 15.308 60.6287 17.3397 62.6603C19.3713 64.692 22.1268 65.8333 25 65.8333C27.8732 65.8333 30.6287 64.692 32.6603 62.6603C34.692 60.6287 35.8333 57.8732 35.8333 55V39.5833C35.8333 38.4333 34.9 37.5 33.75 37.5H16.25ZM19.1667 20C19.1667 18.4529 19.7813 16.9692 20.8752 15.8752C21.9692 14.7812 23.4529 14.1667 25 14.1667C26.5471 14.1667 28.0308 14.7812 29.1248 15.8752C30.2188 16.9692 30.8333 18.4529 30.8333 20C30.8333 21.5471 30.2188 23.0308 29.1248 24.1248C28.0308 25.2187 26.5471 25.8333 25 25.8333C23.4529 25.8333 21.9692 25.2187 20.8752 24.1248C19.7813 23.0308 19.1667 21.5471 19.1667 20ZM25 10C22.3478 10 19.8043 11.0536 17.9289 12.9289C16.0536 14.8043 15 17.3478 15 20C15 22.6522 16.0536 25.1957 17.9289 27.0711C19.8043 28.9464 22.3478 30 25 30C27.6522 30 30.1957 28.9464 32.0711 27.0711C33.9464 25.1957 35 22.6522 35 20C35 17.3478 33.9464 14.8043 32.0711 12.9289C30.1957 11.0536 27.6522 10 25 10Z" fill="#0E2C50"/>
</svg>
