<svg width="80" height="80" viewBox="0 0 80 80" fill="none" xmlns="http://www.w3.org/2000/svg">
<mask id="mask0_82_360" style="mask-type:alpha" maskUnits="userSpaceOnUse" x="0" y="0" width="80" height="80">
<rect width="80" height="80" fill="#D9D9D9"/>
</mask>
<g mask="url(#mask0_82_360)">
<path d="M8.71826 33.045C8.71826 28.1305 9.76187 23.5941 11.8491 19.4358C13.9369 15.278 16.7544 11.7675 20.3016 8.90414L23.3841 12.795C20.4141 15.1966 18.0605 18.1411 16.3233 21.6283C14.5866 25.1155 13.7183 28.9211 13.7183 33.045H8.71826ZM66.2816 33.045C66.2816 28.9211 65.4133 25.1103 63.6766 21.6125C61.9394 18.1147 59.5858 15.1647 56.6158 12.7625L59.6983 8.90414C63.2455 11.7675 66.063 15.278 68.1508 19.4358C70.238 23.5941 71.2816 28.1305 71.2816 33.045H66.2816ZM14.9999 62.9483V57.9492H21.0258V33.0766C21.0258 28.5939 22.4094 24.6303 25.1766 21.1858C27.9433 17.7414 31.4955 15.5383 35.8333 14.5766V12.5C35.8333 11.3461 36.2394 10.3633 37.0516 9.55165C37.8633 8.73942 38.846 8.33331 39.9999 8.33331C41.1538 8.33331 42.1366 8.73942 42.9483 9.55165C43.7605 10.3633 44.1666 11.3461 44.1666 12.5V14.5766C48.5044 15.5383 52.0566 17.7414 54.8233 21.1858C57.5905 24.6303 58.9741 28.5939 58.9741 33.0766V57.9492H64.9999V62.9483H14.9999ZM39.9999 72.3075C38.3377 72.3075 36.918 71.7189 35.7408 70.5417C34.563 69.3644 33.9741 67.9444 33.9741 66.2817H46.0258C46.0258 67.9444 45.4369 69.3644 44.2591 70.5417C43.0819 71.7189 41.6622 72.3075 39.9999 72.3075ZM26.0258 57.9492H53.9741V33.0766C53.9741 29.2178 52.6099 25.9241 49.8816 23.1958C47.1527 20.4669 43.8588 19.1025 39.9999 19.1025C36.141 19.1025 32.8472 20.4669 30.1183 23.1958C27.3899 25.9241 26.0258 29.2178 26.0258 33.0766V57.9492Z" fill="#0E2C50"/>
</g>
</svg>
