<svg width="80" height="80" viewBox="0 0 80 80" fill="none" xmlns="http://www.w3.org/2000/svg">
<mask id="mask0_82_370" style="mask-type:alpha" maskUnits="userSpaceOnUse" x="0" y="0" width="80" height="80">
<rect width="80" height="80" fill="#D9D9D9"/>
</mask>
<g mask="url(#mask0_82_370)">
<path d="M51.5766 55.09L55.09 51.5767L42.5 38.9867V23.3334H37.5V41.0125L51.5766 55.09ZM40.0058 71.6667C35.6258 71.6667 31.5089 70.8356 27.655 69.1734C23.8011 67.5112 20.4489 65.2553 17.5983 62.4059C14.7478 59.5564 12.4908 56.2056 10.8275 52.3534C9.1647 48.5012 8.33331 44.3853 8.33331 40.0059C8.33331 35.6259 9.16442 31.5089 10.8266 27.655C12.4889 23.8012 14.7447 20.4489 17.5941 17.5984C20.4436 14.7478 23.7944 12.4909 27.6466 10.8275C31.4989 9.16476 35.6147 8.33337 39.9941 8.33337C44.3741 8.33337 48.4911 9.16448 52.345 10.8267C56.1989 12.4889 59.5511 14.7448 62.4016 17.5942C65.2522 20.4437 67.5091 23.7945 69.1725 27.6467C70.8353 31.4989 71.6666 35.6148 71.6666 39.9942C71.6666 44.3742 70.8355 48.4912 69.1733 52.345C67.5111 56.1989 65.2553 59.5512 62.4058 62.4017C59.5564 65.2523 56.2055 67.5092 52.3533 69.1725C48.5011 70.8353 44.3853 71.6667 40.0058 71.6667ZM40 66.6667C47.3889 66.6667 53.6805 64.0695 58.875 58.875C64.0694 53.6806 66.6666 47.3889 66.6666 40C66.6666 32.6112 64.0694 26.3195 58.875 21.125C53.6805 15.9306 47.3889 13.3334 40 13.3334C32.6111 13.3334 26.3194 15.9306 21.125 21.125C15.9305 26.3195 13.3333 32.6112 13.3333 40C13.3333 47.3889 15.9305 53.6806 21.125 58.875C26.3194 64.0695 32.6111 66.6667 40 66.6667Z" fill="#0E2C50"/>
</g>
</svg>
